<svg id="Layer_1" data-name="Layer 1" xmlns="http://www.w3.org/2000/svg" xmlns:xlink="http://www.w3.org/1999/xlink" viewBox="0 0 156 156"><defs><style>.cls-1,.cls-2{stroke-miterlimit:10;}.cls-1{fill:url(#linear-gradient);stroke:url(#linear-gradient-2);}.cls-2{fill:url(#linear-gradient-3);stroke:url(#linear-gradient-4);}.cls-3{fill:url(#linear-gradient-5);}.cls-4{fill:url(#linear-gradient-6);}</style><linearGradient id="linear-gradient" x1="348" y1="214.99" x2="464.25" y2="214.99" gradientUnits="userSpaceOnUse"><stop offset="0" stop-color="#2c38d3"/><stop offset="0.86" stop-color="#ad33ff"/></linearGradient><linearGradient id="linear-gradient-2" x1="406.13" y1="292.99" x2="406.13" y2="137" gradientUnits="userSpaceOnUse"><stop offset="0" stop-color="#2c38d3"/><stop offset="1" stop-color="#ad33ff"/></linearGradient><linearGradient id="linear-gradient-3" x1="387" y1="270.05" x2="488.58" y2="168.48" gradientUnits="userSpaceOnUse"><stop offset="0" stop-color="#db0200"/><stop offset="1" stop-color="#2d0000"/></linearGradient><linearGradient id="linear-gradient-4" x1="444.87" y1="293" x2="444.87" y2="137.01" gradientUnits="userSpaceOnUse"><stop offset="0" stop-color="#db1500"/><stop offset="1" stop-color="#6a0000"/></linearGradient><linearGradient id="linear-gradient-5" x1="66.81" y1="110.29" x2="89.19" y2="123.21" xlink:href="#linear-gradient"/><linearGradient id="linear-gradient-6" x1="68.87" y1="48.38" x2="87.13" y2="30.12" xlink:href="#linear-gradient-3"/></defs><path class="cls-1" d="M464.25,176.25A38.75,38.75,0,0,1,425.5,215a38.75,38.75,0,0,0-1,77.49,77.5,77.5,0,0,1,0-155h2A38.76,38.76,0,0,1,464.25,176.25Z" transform="translate(-347.5 -137)"/><path class="cls-2" d="M503,215a77.5,77.5,0,0,1-76.5,77.49h-2a38.75,38.75,0,0,1,1-77.49,38.75,38.75,0,0,0,1-77.49A77.5,77.5,0,0,1,503,215Z" transform="translate(-347.5 -137)"/><circle class="cls-3" cx="78" cy="116.75" r="12.92"/><circle class="cls-4" cx="78" cy="39.25" r="12.92"/></svg>